<?xml version="1.0" standalone="no"?>
<!DOCTYPE svg PUBLIC "-//W3C//DTD SVG 20010904//EN"
 "http://www.w3.org/TR/2001/REC-SVG-20010904/DTD/svg10.dtd">
<svg version="1.0" xmlns="http://www.w3.org/2000/svg"
 width="1076.000000pt" height="1095.000000pt" viewBox="0 0 1076.000000 1095.000000"
 preserveAspectRatio="xMidYMid meet">

<g transform="translate(0.000000,1095.000000) scale(0.100000,-0.100000)"
fill="#000000" stroke="none">
<path d="M5330 10283 c-454 -20 -888 -92 -1250 -208 -58 -18 -141 -43 -185
-55 -227 -62 -415 -141 -686 -288 -30 -16 -103 -55 -164 -87 -60 -32 -116 -64
-123 -72 -25 -24 -36 -13 -12 12 13 14 31 25 39 25 9 0 48 27 86 60 39 33 75
60 82 60 6 0 24 13 40 28 15 16 36 31 45 35 24 9 12 36 -13 30 -10 -3 -19 0
-19 6 0 6 -7 11 -15 11 -8 0 -15 -7 -15 -15 0 -19 -16 -19 -24 0 -3 8 -12 12
-20 9 -9 -3 -21 5 -32 21 -9 14 -23 24 -30 21 -15 -6 -34 22 -27 40 2 8 -15
15 -47 19 -27 4 -50 11 -50 17 0 6 -11 8 -25 5 -19 -3 -31 2 -44 19 -17 21
-20 22 -39 8 -20 -14 -21 -13 -15 3 6 17 5 17 -14 1 -24 -22 -33 -23 -33 -4 0
13 27 31 43 27 4 0 10 6 13 14 4 8 10 15 15 15 5 0 17 8 27 18 10 10 29 26 42
35 13 9 21 20 17 23 -4 4 -17 -2 -30 -14 -13 -12 -29 -22 -35 -22 -10 0 -41
-17 -134 -75 -21 -13 -126 -83 -160 -106 -15 -11 -31 -19 -37 -19 -5 0 -11 -3
-13 -7 -3 -9 -21 -22 -145 -105 -45 -31 -96 -70 -115 -87 -18 -17 -37 -31 -42
-31 -9 0 -37 -23 -155 -129 -41 -36 -88 -76 -105 -89 -58 -42 -328 -307 -384
-377 -32 -38 -80 -95 -109 -125 -28 -30 -76 -89 -106 -130 -31 -41 -72 -95
-92 -120 -40 -50 -102 -135 -152 -208 -18 -26 -49 -69 -68 -97 -20 -27 -42
-63 -49 -80 -8 -16 -31 -52 -50 -80 -20 -27 -36 -55 -36 -60 0 -6 -15 -33 -33
-60 -19 -28 -40 -63 -49 -80 -13 -27 -116 -222 -138 -264 -28 -51 -90 -193
-96 -217 -4 -16 -15 -43 -25 -59 -9 -17 -29 -66 -44 -110 -14 -44 -34 -98 -45
-120 -11 -22 -29 -78 -41 -125 -11 -47 -25 -90 -31 -97 -5 -7 -25 -73 -43
-147 -18 -74 -36 -140 -40 -146 -6 -10 -25 -121 -55 -335 -6 -38 -15 -83 -20
-100 -10 -32 -22 -137 -42 -365 -18 -198 -18 -974 -1 -991 17 -17 20 -13 39
62 9 35 27 82 40 104 13 23 30 60 38 83 9 24 24 55 35 68 11 14 29 50 40 79
29 76 128 211 242 329 147 152 311 281 634 502 122 83 241 164 270 184 82 56
114 76 145 91 19 9 44 26 54 38 11 11 24 21 30 21 6 0 56 32 111 70 55 39 113
78 129 88 16 9 45 31 65 48 20 17 46 34 58 38 13 4 41 22 63 41 22 19 50 37
63 41 12 4 40 21 62 39 22 18 51 36 65 40 14 4 36 17 50 30 14 12 63 47 110
77 130 84 258 171 470 318 110 77 303 210 372 257 18 12 51 35 73 50 22 15 60
39 85 52 25 13 54 31 65 41 11 10 38 27 60 38 22 11 49 28 60 36 11 9 54 38
95 65 41 26 95 61 119 77 24 16 58 37 75 47 17 11 47 31 66 45 19 15 80 56
136 92 91 58 178 115 312 206 24 16 60 38 81 49 20 11 52 32 72 47 19 15 45
32 59 38 14 6 43 24 65 41 22 16 49 33 60 38 11 5 44 25 74 45 29 20 57 36 62
36 5 0 32 15 61 34 29 18 64 37 78 41 14 4 54 22 90 41 155 79 239 96 314 64
86 -36 238 -113 291 -146 28 -18 61 -35 75 -39 14 -4 43 -20 65 -35 22 -15 60
-36 85 -47 25 -11 59 -32 74 -46 16 -15 34 -27 41 -27 6 0 40 -20 76 -45 35
-25 68 -45 73 -45 4 0 25 -13 45 -28 20 -16 65 -45 101 -65 90 -50 242 -145
470 -292 286 -185 340 -220 375 -238 17 -8 53 -30 82 -48 124 -81 280 -166
358 -197 84 -33 229 -92 250 -102 11 -5 85 -34 163 -65 144 -56 270 -110 392
-167 170 -79 239 -112 280 -133 25 -13 59 -30 75 -38 17 -8 80 -39 140 -68 61
-29 129 -66 152 -81 23 -15 45 -28 50 -28 4 0 64 -29 133 -64 69 -35 139 -70
155 -78 86 -44 195 -92 235 -103 25 -8 72 -23 105 -35 56 -20 115 -35 325 -81
117 -25 378 -37 391 -18 11 17 3 98 -17 159 -8 25 -21 82 -28 126 -8 45 -26
114 -41 155 -14 41 -32 101 -40 134 -8 33 -24 85 -36 115 -11 30 -29 83 -39
117 -10 35 -32 91 -49 125 -16 35 -33 74 -36 88 -4 14 -22 54 -40 90 -18 36
-36 77 -40 90 -4 14 -22 50 -40 80 -18 30 -36 66 -40 78 -4 13 -20 43 -36 67
-16 24 -35 59 -41 77 -6 18 -29 58 -50 88 -21 30 -38 58 -38 63 0 4 -16 30
-35 57 -19 27 -35 54 -35 59 0 6 -18 31 -40 56 -22 25 -40 50 -40 54 0 4 -20
34 -45 65 -25 32 -45 66 -45 75 0 14 -2 14 -10 1 -9 -14 -15 -7 -11 14 1 5 -5
4 -13 -3 -11 -9 -13 -19 -6 -37 13 -32 -5 -32 -26 1 -19 30 -39 34 -24 5 5
-11 14 -29 20 -40 11 -21 3 -53 -11 -44 -5 3 -7 9 -4 14 3 5 1 11 -5 15 -5 3
-10 -1 -10 -9 0 -9 -6 -15 -12 -13 -7 1 -14 -8 -16 -20 -4 -27 -20 -30 -30 -5
-9 21 -34 28 -26 7 4 -8 1 -15 -6 -15 -9 0 -8 -6 3 -18 19 -21 22 -42 7 -42
-5 0 -10 7 -10 16 0 8 -6 22 -14 29 -12 12 -15 11 -21 -8 -4 -12 -6 -30 -5
-39 2 -23 -18 -58 -33 -57 -9 0 -9 2 1 6 20 8 14 23 -10 23 -19 0 -20 2 -8 10
11 8 7 9 -15 4 -32 -7 -58 -24 -37 -24 7 0 12 -6 12 -14 0 -8 7 -17 16 -20 12
-5 14 -13 9 -33 -5 -23 -4 -25 10 -13 24 20 31 3 9 -21 -14 -16 -16 -23 -6
-26 6 -3 10 -9 6 -14 -3 -5 0 -9 5 -9 6 0 11 -7 11 -15 0 -9 7 -18 15 -21 8
-4 15 -15 15 -26 0 -11 -4 -16 -11 -12 -6 3 -75 93 -155 199 -191 255 -461
565 -674 773 -81 80 -438 354 -640 493 -185 126 -398 251 -542 318 -45 21
-146 68 -223 104 -93 43 -182 75 -265 96 -69 18 -179 50 -245 71 -321 104
-802 195 -1115 210 -102 5 -196 9 -210 8 -14 -1 -54 -3 -90 -5z m440 -193 c25
-6 92 -15 150 -20 58 -4 123 -13 145 -18 22 -6 80 -13 129 -17 49 -3 99 -11
110 -17 33 -18 144 -48 221 -59 39 -6 75 -15 81 -20 13 -11 146 -55 194 -64
19 -4 44 -13 55 -19 11 -7 56 -25 100 -40 44 -15 103 -38 130 -50 92 -43 123
-56 133 -56 5 0 12 -6 15 -13 3 -8 34 -24 69 -36 34 -13 77 -34 95 -47 17 -13
36 -24 40 -24 5 0 52 -23 104 -50 51 -28 101 -53 109 -57 8 -3 28 -17 43 -30
16 -13 33 -23 37 -23 5 0 29 -14 52 -30 78 -56 180 -125 282 -192 10 -7 51
-38 91 -69 39 -31 82 -62 94 -68 12 -7 30 -20 40 -29 10 -9 49 -43 87 -74 38
-31 143 -132 232 -225 244 -251 275 -284 312 -333 19 -25 64 -79 100 -122 64
-75 112 -138 178 -235 18 -26 44 -64 57 -83 85 -122 136 -202 144 -223 5 -13
22 -43 39 -68 16 -24 33 -55 37 -67 4 -13 20 -43 36 -67 16 -24 35 -59 41 -77
7 -18 29 -60 50 -93 21 -33 38 -68 38 -77 0 -9 4 -19 9 -22 27 -17 131 -300
131 -358 0 -48 -41 -36 -169 48 -64 42 -127 87 -141 99 -14 13 -36 26 -50 30
-14 4 -41 20 -60 34 -42 32 -141 99 -184 124 -17 11 -44 31 -61 47 -16 15 -41
31 -55 35 -14 5 -45 23 -69 41 -24 19 -49 34 -55 34 -5 0 -36 18 -67 40 -32
22 -61 40 -66 40 -4 0 -34 18 -67 40 -32 22 -64 40 -71 40 -7 0 -18 7 -25 15
-7 9 -40 32 -74 51 -34 20 -75 45 -93 57 -17 12 -64 42 -103 66 -108 67 -104
55 -97 309 4 119 10 253 13 297 10 118 -17 207 -79 264 -56 52 -127 101 -147
101 -8 0 -33 7 -55 15 -53 19 -173 18 -260 -1 -38 -9 -86 -15 -106 -15 -67 1
-73 -11 -80 -161 -3 -73 -12 -150 -19 -170 -14 -37 -15 -38 -60 -34 -25 2 -47
5 -50 6 -3 1 -15 1 -27 0 -13 -1 -23 4 -23 11 0 7 -3 9 -7 6 -3 -4 -12 -2 -19
4 -8 7 -14 7 -19 -1 -3 -5 1 -10 9 -10 9 0 16 -4 16 -10 0 -12 -20 -13 -38 -2
-7 5 -10 16 -6 28 6 18 6 18 -9 -1 -8 -11 -13 -23 -11 -27 3 -4 -1 -5 -9 -2
-9 3 -12 14 -9 30 5 26 -7 31 -26 12 -8 -8 -9 -15 -1 -25 9 -10 8 -13 -5 -13
-9 0 -16 4 -16 9 0 16 -41 24 -54 11 -6 -6 -6 -11 -1 -10 6 2 17 2 25 0 11 -1
9 -4 -5 -9 -12 -5 -30 -3 -47 5 -15 8 -36 14 -47 14 -11 0 -23 5 -26 10 -8 14
-21 13 -37 -3 -7 -8 -28 -16 -46 -20 -24 -5 -32 -3 -32 8 0 8 8 15 18 15 15 1
15 2 1 10 -25 15 -61 1 -54 -21 7 -23 -1 -24 -21 -5 -19 19 -18 22 9 31 17 5
18 8 7 12 -8 3 -18 11 -22 17 -4 6 -9 4 -14 -7 -7 -19 -22 -21 -44 -7 -13 9
-13 11 0 21 12 8 9 9 -13 5 -31 -7 -67 8 -67 28 0 8 -11 14 -25 14 -14 0 -35
8 -47 18 -21 19 -21 19 -9 -3 6 -13 20 -23 31 -23 10 0 22 -9 25 -21 4 -11 20
-28 36 -38 16 -10 26 -21 22 -24 -3 -4 1 -7 10 -7 10 0 17 -4 17 -8 0 -5 25
-21 55 -37 30 -15 55 -32 55 -37 0 -5 13 -14 30 -19 16 -6 28 -15 27 -19 -1
-5 7 -16 18 -24 29 -22 -1 -20 -33 2 -15 10 -64 37 -109 60 -45 22 -122 68
-170 100 -133 90 -733 448 -858 512 -60 31 -148 69 -195 85 -74 25 -99 28
-195 28 -133 -1 -205 -20 -332 -89 -48 -25 -92 -50 -98 -54 -5 -4 -55 -31
-110 -60 -55 -30 -122 -69 -148 -87 -27 -19 -53 -33 -58 -31 -6 2 10 18 35 35
26 18 46 37 46 43 0 5 7 10 15 10 8 0 15 5 15 10 0 6 14 24 30 42 23 23 27 34
18 40 -7 4 -20 5 -29 2 -11 -3 -16 1 -15 12 0 9 -5 19 -12 21 -7 3 -11 -1 -10
-8 2 -7 -5 -14 -14 -16 -12 -3 -15 1 -11 15 3 12 -1 22 -11 25 -10 4 -16 1
-16 -8 0 -17 -26 -20 -36 -4 -3 6 0 15 7 20 9 6 -5 9 -40 9 -30 0 -51 3 -48 6
3 4 -8 20 -24 35 -36 33 -41 35 -32 13 6 -15 4 -15 -19 0 -23 15 -26 15 -31 1
-9 -21 -29 -19 -57 8 -14 12 -26 21 -27 20 -10 -9 -24 0 -20 12 11 27 -14 27
-52 1 -20 -14 -42 -26 -47 -26 -6 0 -25 -13 -44 -30 -18 -16 -49 -35 -69 -41
-20 -7 -54 -27 -77 -46 -23 -18 -45 -33 -50 -33 -4 0 -34 -18 -65 -40 -32 -22
-61 -40 -66 -40 -8 0 -38 -21 -158 -109 -22 -16 -52 -36 -65 -43 -14 -7 -77
-48 -141 -91 -63 -42 -120 -77 -125 -77 -6 0 -19 -9 -29 -20 -10 -11 -22 -20
-27 -20 -10 0 -261 -172 -513 -352 -22 -16 -51 -36 -65 -45 -14 -9 -43 -31
-65 -48 -22 -17 -47 -34 -55 -38 -8 -4 -44 -27 -80 -52 -36 -24 -87 -59 -113
-77 -75 -51 -138 -96 -260 -185 -62 -45 -136 -99 -165 -120 -29 -21 -78 -57
-108 -80 -31 -24 -62 -43 -68 -43 -7 0 -23 -11 -35 -24 -12 -13 -39 -32 -59
-42 -20 -11 -59 -36 -85 -56 -27 -21 -53 -38 -58 -38 -5 0 -32 -17 -59 -37
-27 -21 -74 -56 -105 -78 -59 -43 -97 -71 -193 -147 -33 -27 -64 -48 -69 -48
-6 0 -22 -9 -37 -21 -37 -29 -133 -79 -151 -79 -24 0 -29 28 -11 68 9 20 29
73 45 117 70 190 83 224 112 290 94 211 190 387 299 545 37 55 88 132 115 175
11 17 36 53 55 79 88 118 152 201 159 206 4 3 14 14 22 26 21 32 188 213 334
362 176 181 330 309 615 514 147 106 219 155 249 168 13 6 53 30 90 54 118 77
244 146 269 146 5 0 17 9 27 20 10 11 23 20 29 20 6 1 29 9 51 20 22 11 45 19
51 20 6 0 22 8 35 18 13 10 59 31 101 47 43 15 83 34 89 41 6 8 21 14 33 14
11 0 33 6 48 14 15 8 42 17 60 21 18 4 47 16 64 26 17 10 38 19 46 19 23 0
168 48 183 60 7 5 45 16 86 24 118 23 201 44 241 60 21 9 57 16 80 16 24 0 90
9 148 20 284 55 327 59 645 55 188 -2 317 -7 345 -15z m-2930 -144 c0 -3 -4
-8 -10 -11 -5 -3 -10 -1 -10 4 0 6 5 11 10 11 6 0 10 -2 10 -4z m150 -47 c0
-6 -4 -7 -10 -4 -5 3 -10 11 -10 16 0 6 5 7 10 4 6 -3 10 -11 10 -16z m1404
-884 c3 3 2 0 -2 -5 -11 -13 -44 -2 -36 12 4 5 11 5 18 -1 7 -6 16 -9 20 -6z
m41 -5 c-10 -11 -20 -18 -23 -16 -5 6 21 35 32 36 5 0 1 -9 -9 -20z m5299
-595 c4 -11 -2 -15 -21 -15 -21 0 -24 2 -13 15 7 8 16 15 20 15 4 0 10 -7 14
-15z m-119 -123 c-3 -3 -11 0 -18 7 -9 10 -8 11 6 5 10 -3 15 -9 12 -12z m-90
-42 c3 -5 1 -10 -4 -10 -6 0 -11 5 -11 10 0 6 2 10 4 10 3 0 8 -4 11 -10z
m-79 -27 c-7 -7 -26 7 -26 19 0 6 6 6 15 -2 9 -7 13 -15 11 -17z m-2391 -3 c3
-6 -1 -7 -9 -4 -18 7 -21 14 -7 14 6 0 13 -4 16 -10z m72 -46 c-3 -3 -12 -4
-19 -1 -8 3 -5 6 6 6 11 1 17 -2 13 -5z m83 -59 c19 -14 30 -25 24 -25 -10 1
-73 50 -63 50 3 0 20 -11 39 -25z"/>
<path d="M4490 9150 c0 -5 4 -10 9 -10 6 0 13 5 16 10 3 6 -1 10 -9 10 -9 0
-16 -4 -16 -10z"/>
<path d="M4415 9111 c-3 -5 -2 -12 3 -15 13 -8 53 5 46 15 -7 12 -41 12 -49 0z"/>
<path d="M9611 8421 c-8 -5 -21 -7 -29 -4 -12 5 -12 2 -3 -15 15 -29 25 -28
39 3 13 28 13 28 -7 16z"/>
<path d="M6305 6983 c-491 -27 -795 -116 -1374 -402 -102 -50 -190 -91 -197
-91 -6 0 -11 7 -10 17 1 18 -73 39 -136 37 -26 -1 -38 4 -41 15 -4 14 -5 14
-6 0 0 -9 -10 -19 -22 -22 -17 -5 -18 -3 -8 9 10 13 8 13 -15 5 -20 -8 -26 -7
-26 3 0 8 -10 11 -29 8 -39 -5 -47 12 -13 29 15 7 35 21 44 30 15 15 15 17 -8
17 -13 0 -24 -4 -24 -8 0 -5 -22 -16 -50 -25 -27 -9 -50 -21 -50 -26 0 -5 -5
-9 -12 -9 -17 0 -136 -58 -193 -95 -28 -18 -61 -36 -73 -39 -12 -4 -22 -12
-22 -17 0 -5 -6 -9 -13 -9 -7 0 -28 -8 -47 -19 -19 -10 -49 -21 -67 -25 -17
-4 -37 -14 -44 -22 -6 -8 -16 -14 -22 -14 -5 0 -31 -9 -56 -21 -25 -11 -64
-29 -86 -38 -22 -10 -61 -28 -86 -40 -25 -11 -59 -21 -75 -21 -22 0 -26 -3
-14 -10 19 -12 399 -13 550 0 63 5 229 18 369 30 139 11 265 23 279 27 13 3
60 25 103 49 44 24 81 44 84 44 4 0 86 38 270 125 39 18 111 51 160 73 85 37
127 55 243 101 65 26 223 71 307 87 247 46 815 64 1071 33 44 -5 147 -13 228
-19 163 -10 404 -58 561 -111 50 -16 111 -36 137 -44 26 -7 81 -29 123 -49 42
-20 80 -36 85 -36 5 0 36 -16 69 -35 32 -19 64 -35 70 -35 6 0 27 -16 48 -35
l36 -34 -27 -38 c-15 -21 -54 -60 -86 -88 -62 -54 -71 -68 -121 -190 -44 -106
-81 -168 -143 -240 -29 -33 -74 -87 -100 -120 -73 -92 -271 -300 -348 -366
-72 -62 -111 -81 -59 -28 17 17 31 34 31 39 0 5 14 24 30 42 17 18 30 37 30
43 0 6 8 17 19 24 42 31 -4 63 -94 65 -23 1 -30 6 -30 21 0 21 -34 29 -47 11
-4 -6 -13 -4 -22 3 -9 8 -26 11 -41 7 -14 -4 -25 -2 -25 3 0 10 -19 9 -37 -2
-6 -4 -14 -3 -18 3 -4 6 -13 7 -23 2 -9 -5 -28 -6 -42 -2 -14 4 -37 3 -52 -1
-16 -4 -30 -3 -34 2 -4 6 -11 5 -20 -2 -8 -6 -17 -9 -21 -6 -3 4 -13 1 -21 -6
-13 -9 -14 -9 -8 1 5 8 -1 12 -18 12 -14 0 -26 -3 -26 -7 0 -5 -13 -8 -30 -8
-16 0 -30 3 -30 7 0 4 -21 4 -47 1 -27 -3 -54 -6 -60 -6 -7 0 -13 -5 -13 -10
0 -6 -5 -5 -12 1 -7 5 -26 10 -43 10 -16 0 -36 -5 -42 -10 -8 -6 -13 -7 -13
-1 0 5 -8 10 -17 11 -35 4 -107 1 -115 -4 -4 -3 -8 0 -8 6 0 7 -6 8 -17 2 -10
-4 -29 -7 -43 -6 -14 1 -31 -3 -37 -8 -8 -6 -13 -7 -13 -1 0 5 -27 10 -60 11
-33 1 -66 2 -72 2 -28 1 -246 -9 -280 -14 -21 -2 -35 0 -32 5 3 5 -5 5 -18 0
-13 -4 -36 -4 -52 0 -18 5 -34 5 -42 -2 -8 -7 -13 -6 -16 2 -3 8 -9 9 -18 4
-7 -4 -44 -8 -81 -8 -38 0 -67 -3 -64 -7 2 -3 -19 -3 -47 0 -28 4 -71 6 -95 5
-24 -1 -43 1 -43 4 0 3 -20 6 -44 6 -24 0 -44 -4 -43 -8 1 -5 -51 -10 -115
-12 -73 -2 -118 0 -118 6 0 6 -10 3 -22 -5 -15 -11 -26 -12 -39 -5 -11 6 -20
6 -24 -1 -3 -5 -20 -8 -36 -6 -17 2 -36 -2 -42 -9 -7 -7 -24 -9 -48 -5 -21 4
-42 3 -47 -2 -5 -5 -30 -10 -56 -10 -28 0 -46 -4 -46 -11 0 -7 -4 -6 -10 3 -8
13 -14 13 -42 1 -18 -7 -42 -14 -53 -15 -11 0 -22 -3 -25 -6 -3 -3 -34 -12
-70 -19 -36 -7 -66 -17 -68 -21 -2 -5 -9 -7 -17 -4 -7 3 -16 1 -19 -5 -4 -6
-20 -8 -36 -4 -17 3 -36 1 -42 -4 -7 -6 -29 -10 -48 -9 -19 1 -39 -1 -45 -4
-5 -4 -41 -15 -79 -24 -56 -14 -71 -15 -78 -4 -6 9 -7 5 -3 -9 4 -14 2 -23 -5
-23 -6 0 -9 4 -5 9 10 16 -17 25 -29 9 -6 -8 -17 -13 -23 -11 -8 3 -13 -4 -13
-17 0 -19 -1 -20 -16 -6 -19 20 -34 21 -34 2 0 -8 -7 -17 -16 -20 -13 -5 -10
-14 20 -54 61 -81 157 -262 138 -262 -4 0 -25 28 -46 63 -74 116 -207 286
-264 335 -134 114 -317 219 -487 279 -77 27 -88 28 -260 27 -336 -1 -551 -61
-791 -220 -45 -29 -104 -74 -132 -99 -27 -25 -53 -45 -56 -45 -7 0 37 62 61
88 7 7 16 19 20 26 5 6 26 25 48 41 60 45 68 60 34 62 -12 1 -31 12 -42 24
-16 17 -17 21 -5 17 11 -5 22 2 33 18 16 24 15 25 -2 24 -32 -4 -36 0 -22 17
12 15 12 16 -8 11 -12 -3 -22 -3 -21 1 2 19 -5 29 -29 41 -16 7 -23 15 -15 17
6 3 12 9 12 15 0 6 -7 8 -14 5 -10 -4 -13 -1 -10 7 3 8 0 17 -5 21 -6 3 -8 12
-4 18 4 8 1 7 -9 -1 -14 -11 -19 -10 -37 9 -19 21 -19 23 -3 36 16 13 15 14
-5 8 -22 -6 -63 23 -63 45 0 5 -3 9 -7 8 -5 0 -19 3 -32 9 -16 6 -20 12 -13
17 17 10 15 29 -3 22 -10 -3 -17 3 -21 19 -8 31 -32 32 -44 3 -6 -16 -9 -18
-9 -6 -1 9 -7 19 -13 21 -8 3 -7 6 4 6 9 1 20 6 24 13 5 7 2 9 -9 5 -9 -3 -18
-1 -20 6 -3 8 -10 5 -20 -8 -15 -19 -15 -19 -10 7 3 16 13 28 26 32 35 9 9 20
-40 17 -27 -2 -57 -11 -71 -22 -14 -10 -33 -19 -43 -19 -23 0 -119 -38 -139
-54 -8 -8 -28 -17 -45 -20 -16 -4 -52 -21 -79 -38 -27 -16 -60 -34 -74 -39
-25 -10 -89 -56 -168 -121 -25 -21 -50 -38 -56 -38 -6 0 -30 -17 -53 -37 -24
-21 -63 -53 -88 -71 -76 -55 -318 -325 -391 -436 -21 -32 -47 -84 -57 -115
-10 -31 -27 -83 -39 -116 -12 -33 -28 -93 -36 -133 -7 -40 -18 -81 -23 -90
-38 -73 -62 -316 -42 -441 14 -90 54 -165 107 -201 l38 -25 751 -3 c674 -3
753 -1 765 13 11 13 8 32 -20 118 -40 120 -49 212 -39 383 5 99 12 137 38 210
18 49 37 98 42 109 17 36 83 140 114 180 53 69 199 207 240 227 22 10 58 32
80 48 22 16 54 32 70 35 17 4 40 13 53 21 12 8 53 25 90 37 59 19 88 22 247
22 161 0 188 -2 250 -23 38 -13 79 -29 90 -36 11 -7 31 -16 45 -19 29 -8 146
-80 207 -129 46 -36 159 -164 210 -237 144 -207 197 -479 145 -737 -11 -54
-24 -125 -27 -156 l-7 -58 1808 0 c995 0 1887 -3 1981 -7 146 -5 173 -4 178 9
6 16 -14 98 -41 168 -14 36 -17 77 -17 215 0 95 5 188 11 210 6 22 20 75 30
117 24 95 92 238 135 284 18 18 56 63 86 99 30 36 60 65 67 65 6 0 24 16 38
35 15 19 32 35 39 35 7 0 39 19 72 41 33 21 77 44 97 49 20 6 40 15 43 19 3 5
35 20 73 33 61 21 84 23 262 23 176 0 202 -3 270 -24 41 -13 80 -27 86 -32 6
-5 27 -15 46 -22 63 -22 189 -111 272 -192 104 -101 186 -228 251 -389 50
-127 44 -496 -11 -651 -14 -38 -28 -78 -31 -87 -5 -17 16 -18 354 -18 330 0
361 1 375 18 26 30 52 118 74 257 8 50 21 108 28 130 17 49 43 223 56 374 6
62 17 150 25 195 20 119 24 1055 4 1066 -15 8 -411 40 -495 40 -28 0 -77 9
-109 20 -32 11 -72 20 -88 20 -41 0 -178 39 -197 55 -8 7 -37 18 -65 23 -64
13 -136 40 -156 58 -8 8 -27 14 -41 14 -30 0 -131 44 -148 65 -7 8 -24 15 -39
15 -14 0 -39 9 -56 20 -30 20 -75 27 -75 12 0 -4 10 -12 22 -17 13 -6 25 -19
27 -30 2 -11 8 -23 14 -27 7 -4 7 -11 -2 -22 -7 -9 -18 -13 -24 -9 -6 4 -3 9
9 14 18 7 18 8 0 8 -10 1 -25 9 -32 19 -12 16 -13 16 -14 0 0 -9 5 -20 10 -23
8 -5 7 -12 -2 -23 -11 -13 -11 -14 1 -7 11 6 13 4 8 -9 -4 -10 -3 -15 3 -11 5
3 18 -3 29 -14 20 -20 20 -20 0 -26 -10 -4 -17 -11 -14 -16 9 -14 32 -11 50 7
9 9 19 13 23 9 4 -4 1 -10 -6 -12 -7 -3 -19 -11 -26 -19 -8 -8 -19 -14 -25
-14 -6 0 -11 -5 -11 -11 0 -6 -7 -8 -15 -5 -10 4 -20 -3 -27 -19 -6 -14 -16
-25 -21 -25 -5 0 -4 -7 3 -15 18 -22 2 -40 -20 -20 -15 13 -23 14 -39 5 -27
-14 -27 -23 0 -15 16 5 20 3 17 -6 -3 -8 -12 -13 -21 -13 -9 1 -14 -2 -11 -7
3 -5 0 -9 -5 -9 -6 0 -11 5 -11 11 0 5 -5 7 -12 3 -7 -5 -5 -11 7 -21 16 -11
16 -13 3 -13 -8 0 -21 6 -28 14 -6 8 -17 13 -24 10 -7 -3 -19 2 -26 11 -11 13
-15 13 -22 3 -6 -10 -10 -10 -16 -1 -7 11 -24 15 -98 27 -7 1 -19 8 -28 15 -9
7 -23 11 -31 7 -8 -3 -15 -2 -15 2 0 4 -21 21 -45 37 -25 17 -45 36 -45 43 0
6 -4 12 -9 12 -5 0 -12 -6 -14 -12 -3 -7 -6 -2 -6 11 -1 16 -6 21 -15 18 -8
-3 -20 0 -26 8 -16 19 -116 47 -143 41 -12 -3 -16 -3 -9 0 17 8 5 24 -19 24
-50 0 3 104 158 309 35 46 63 90 63 97 0 15 -27 44 -42 44 -6 0 -32 10 -57 21
-76 36 -104 46 -148 56 -37 9 -41 8 -40 -9 1 -10 8 -18 17 -19 10 0 11 -2 3
-6 -7 -2 -13 -11 -13 -19 0 -8 -9 -14 -20 -14 -11 0 -20 -4 -20 -10 0 -5 7
-10 15 -10 9 0 12 -6 9 -15 -5 -11 0 -14 16 -13 13 2 25 -3 27 -10 3 -8 -1
-10 -14 -5 -10 3 -1 -8 19 -27 60 -53 33 -66 -55 -27 -49 23 -78 33 -257 91
-41 14 -131 48 -200 76 -127 51 -214 78 -350 105 -303 63 -924 106 -1255 88z
m-1635 -463 c0 -5 -4 -10 -10 -10 -5 0 -10 5 -10 10 0 6 5 10 10 10 6 0 10 -4
10 -10z m30 -30 c13 -8 13 -10 -2 -10 -9 0 -20 5 -23 10 -8 13 5 13 25 0z
m4613 -187 c3 -5 -6 -9 -19 -9 -13 -1 -21 2 -18 7 6 11 31 12 37 2z m-32 -47
c5 3 9 0 9 -6 0 -15 -23 -7 -26 8 -1 7 0 8 3 2 2 -5 9 -8 14 -4z m-67 -139
c-5 -15 -33 -31 -40 -24 -2 2 6 14 17 26 23 24 33 23 23 -2z m-494 -7 c0 -5
-2 -10 -4 -10 -3 0 -8 5 -11 10 -3 6 -1 10 4 10 6 0 11 -4 11 -10z m430 -70
c0 -5 -5 -10 -11 -10 -5 0 -7 5 -4 10 3 6 8 10 11 10 2 0 4 -4 4 -10z m-7165
-180 c3 -5 -3 -10 -15 -10 -12 0 -18 5 -15 10 3 6 10 10 15 10 5 0 12 -4 15
-10z m15 -75 c18 -22 4 -110 -27 -170 -50 -97 -120 -181 -231 -280 -227 -202
-409 -266 -757 -269 -152 -1 -182 5 -191 38 -8 34 54 114 155 201 44 37 82 71
83 75 3 6 94 67 208 138 19 12 69 38 110 57 41 20 82 40 90 44 9 5 31 12 50
16 19 4 40 11 45 16 6 4 29 12 50 18 22 6 76 23 120 39 44 17 96 35 115 42 19
7 42 18 50 25 34 28 110 34 130 10z m7002 -60 c42 -2 89 -10 105 -18 15 -8 47
-18 71 -22 23 -4 42 -10 42 -15 0 -4 12 -11 26 -14 15 -4 24 -9 21 -12 -2 -3
-30 4 -61 15 -30 10 -119 29 -197 42 -125 20 -154 21 -238 12 -91 -10 -111
-10 -99 2 8 8 180 23 218 19 19 -3 70 -6 112 -9z"/>
<path d="M9156 6411 c-11 -4 -15 -10 -10 -13 5 -4 18 0 29 8 20 15 12 17 -19
5z"/>
<path d="M9150 6331 c0 -6 5 -13 10 -16 6 -3 10 1 10 9 0 9 -4 16 -10 16 -5 0
-10 -4 -10 -9z"/>
<path d="M7520 5530 c0 -5 5 -10 11 -10 5 0 7 5 4 10 -3 6 -8 10 -11 10 -2 0
-4 -4 -4 -10z"/>
<path d="M8810 5040 c-30 -3 -65 -11 -77 -18 -12 -7 -32 -12 -45 -12 -13 0
-41 -9 -63 -20 -22 -11 -43 -20 -49 -20 -15 0 -118 -70 -159 -109 -55 -52 -91
-109 -115 -182 -61 -188 -41 -430 45 -547 83 -112 164 -179 283 -234 78 -35
191 -48 326 -37 78 7 101 13 160 45 171 92 279 234 323 422 27 120 27 187 -3
292 -44 160 -130 276 -239 324 -34 16 -75 34 -90 42 -16 8 -47 17 -70 20 -23
4 -47 11 -54 16 -18 14 -111 24 -173 18z"/>
<path d="M2913 5009 c-35 -4 -73 -15 -85 -23 -12 -9 -32 -16 -44 -16 -12 0
-27 -7 -34 -15 -6 -8 -21 -17 -33 -21 -73 -23 -180 -143 -222 -248 -43 -110
-51 -301 -16 -411 49 -159 186 -296 381 -381 62 -28 71 -29 215 -28 l150 0 96
47 c129 61 212 143 270 265 54 114 69 178 69 295 0 117 -22 222 -56 268 -13
18 -24 38 -24 44 0 20 -125 136 -166 154 -65 30 -97 37 -132 30 -37 -7 -171
15 -219 36 -34 16 -55 17 -150 4z"/>
<path d="M453 3594 c-2 -6 5 -29 15 -50 11 -22 32 -64 46 -94 15 -30 31 -62
36 -70 5 -8 21 -40 36 -70 101 -202 137 -267 214 -390 29 -47 67 -110 85 -140
17 -30 40 -68 50 -83 10 -16 25 -41 34 -56 41 -72 136 -210 188 -274 24 -29
72 -88 108 -132 150 -182 259 -304 425 -473 204 -207 251 -250 414 -381 169
-135 261 -202 486 -355 19 -14 62 -39 95 -56 33 -18 67 -38 75 -45 58 -48 377
-212 585 -300 61 -25 124 -53 142 -61 17 -8 34 -14 38 -14 4 0 26 -8 49 -19
23 -10 73 -28 111 -40 39 -12 90 -31 115 -40 55 -23 181 -61 201 -61 8 -1 32
-9 54 -20 22 -11 51 -20 65 -20 32 -1 249 -54 275 -67 11 -6 49 -14 85 -17 66
-8 115 -16 320 -57 110 -23 134 -24 600 -24 464 0 489 1 585 22 121 27 250 50
325 59 30 3 78 12 105 20 60 17 162 40 267 59 43 8 86 18 96 24 10 5 47 17 83
25 125 31 335 100 424 140 17 8 95 42 175 76 131 57 332 156 450 223 25 14 70
40 100 57 52 29 150 90 216 135 49 33 228 165 325 240 50 39 102 77 115 86 37
24 349 307 451 408 136 135 237 249 361 406 61 77 121 153 134 169 28 35 96
132 142 201 18 28 40 56 49 64 10 7 17 19 17 25 0 6 20 40 45 76 25 36 45 70
45 75 0 6 13 27 30 47 16 20 38 56 49 80 10 23 31 58 45 77 14 19 26 40 26 46
0 6 11 26 24 45 86 127 257 504 241 531 -8 12 -497 12 -730 0 -99 -6 -365 -13
-591 -16 -227 -4 -429 -11 -450 -16 -22 -6 -43 -10 -49 -10 -11 -1 -209 15
-385 31 -118 10 -599 11 -645 1 l-30 -6 30 -12 c28 -11 68 -20 105 -22 29 -2
-13 -21 -47 -21 -41 0 -65 -9 -56 -23 4 -6 0 -8 -9 -4 -9 3 -19 2 -24 -3 -14
-14 -97 -39 -107 -33 -5 3 -12 2 -16 -3 -12 -18 -65 -36 -69 -25 -6 17 -22 13
-22 -5 0 -10 -6 -14 -15 -10 -9 3 -15 0 -15 -9 0 -14 -17 -20 -46 -16 -7 1
-14 -5 -18 -14 -3 -8 -13 -15 -23 -15 -16 0 -16 2 -3 11 13 9 13 10 0 7 -8 -3
-19 -14 -25 -26 -6 -13 -16 -20 -25 -17 -8 2 -22 0 -29 -5 -9 -5 -22 -5 -34 2
-14 7 -17 7 -13 -1 8 -12 -2 -17 -44 -25 -14 -3 -36 -8 -50 -11 -14 -4 -32 -8
-40 -9 -28 -5 -70 -25 -100 -48 -16 -12 -33 -19 -36 -15 -4 4 -12 0 -19 -9 -6
-9 -25 -17 -41 -18 -17 -2 -37 -7 -45 -12 -49 -31 -91 -46 -139 -51 -42 -5
-61 -12 -81 -32 -14 -15 -35 -28 -47 -29 -12 -1 -31 -3 -42 -4 -11 -1 -20 -8
-20 -16 0 -7 -5 -10 -10 -7 -12 7 -42 -20 -33 -29 10 -10 -17 -7 -38 4 -15 9
-19 7 -19 -6 0 -14 -3 -14 -16 -4 -12 11 -15 11 -12 -1 2 -9 -4 -13 -14 -11
-10 2 -18 -2 -18 -9 0 -7 -11 -10 -30 -7 -16 3 -30 2 -30 -2 0 -10 -60 -29
-75 -24 -7 3 -15 1 -18 -3 -3 -5 -21 -8 -38 -7 -21 1 -38 -4 -46 -14 -7 -10
-13 -12 -13 -5 0 6 -15 11 -34 11 -27 0 -33 -3 -29 -15 5 -13 1 -12 -27 2 -18
9 -29 12 -26 6 4 -6 4 -16 0 -22 -4 -8 -9 -7 -15 2 -6 11 -14 11 -37 3 -16 -6
-38 -7 -50 -3 -12 5 -22 5 -22 0 0 -4 -10 -7 -22 -6 -13 1 -27 0 -33 -3 -5 -3
-25 -6 -45 -7 -19 -1 -44 -5 -55 -9 -16 -6 -17 -6 -5 3 15 11 -7 9 -62 -5 -10
-3 -26 0 -37 5 -15 9 -20 7 -25 -12 -4 -15 -9 -18 -14 -10 -6 9 -47 12 -47 3
0 -1 -14 -3 -31 -5 -18 -1 -39 -5 -47 -8 -12 -4 -14 -2 -10 10 5 13 3 13 -14
5 -11 -6 -26 -18 -33 -27 -9 -11 -15 -13 -20 -4 -5 8 -13 6 -28 -7 -22 -19
-67 -31 -58 -15 3 5 -12 5 -36 -1 -23 -5 -54 -6 -70 -2 -21 4 -35 1 -50 -13
-12 -10 -18 -13 -15 -7 5 8 -7 13 -34 16 -29 3 -43 0 -47 -10 -4 -11 -6 -11
-14 0 -8 10 -11 11 -15 0 -4 -10 -8 -10 -19 -1 -8 6 -14 8 -14 3 0 -11 -185
-10 -217 0 -15 5 -23 3 -23 -5 0 -8 -4 -8 -12 -2 -7 6 -20 10 -28 10 -8 0 -25
3 -37 7 -18 6 -23 3 -24 -11 0 -10 -3 -13 -6 -5 -2 6 -9 10 -14 6 -5 -3 -15
-2 -21 3 -7 4 -42 9 -78 11 -78 3 -99 6 -122 16 -10 5 -25 5 -34 2 -8 -3 -26
1 -40 10 -15 11 -35 14 -54 11 -16 -4 -32 -2 -35 3 -4 6 -11 8 -16 4 -5 -3
-15 -1 -22 4 -15 12 -77 24 -142 29 -99 6 -130 10 -150 17 -11 4 -29 11 -40
15 -11 5 -35 8 -53 7 -17 -1 -32 3 -32 8 0 4 -7 5 -16 2 -10 -4 -23 2 -34 14
-11 12 -36 22 -66 27 -27 3 -52 11 -56 17 -5 8 -11 7 -19 -1 -9 -9 -20 -6 -48
11 -64 39 -93 49 -102 34 -6 -8 -9 -9 -9 -2 0 10 -28 25 -55 28 -6 1 -21 9
-35 19 -13 9 -30 17 -36 17 -17 0 -97 43 -109 58 -6 7 -17 14 -26 15 -8 2 -28
13 -43 25 -16 12 -35 22 -42 22 -8 0 -14 5 -14 10 0 6 -6 10 -12 10 -7 0 -26
14 -42 30 -16 17 -37 30 -47 30 -23 0 -59 38 -59 62 0 10 -7 18 -15 18 -7 0
-18 7 -23 16 -9 17 -67 42 -109 49 -12 2 -28 7 -35 11 -7 5 -22 9 -33 10 -11
1 -31 4 -45 7 -14 3 -35 8 -48 11 -12 3 -26 7 -30 10 -4 2 -46 7 -92 11 -92 7
-111 13 -86 27 30 17 17 35 -31 44 -77 13 -1655 11 -1660 -2z m7438 -612 c-19
-15 -94 -81 -168 -147 -171 -153 -292 -254 -318 -266 -20 -10 -20 -10 0 6 11
8 83 77 160 153 90 88 177 163 245 209 109 74 139 91 81 45z m-925 -697 c-11
-8 -25 -15 -30 -15 -6 1 0 7 14 15 32 19 40 18 16 0z m-51 -35 c-3 -5 -11 -10
-16 -10 -6 0 -7 5 -4 10 3 6 11 10 16 10 6 0 7 -4 4 -10z m-643 -380 c-18 -11
-34 -20 -37 -20 -2 0 -28 -11 -57 -24 -29 -13 -78 -34 -108 -46 -30 -12 -62
-25 -71 -30 -52 -27 -372 -135 -463 -156 -16 -4 -41 -13 -55 -20 -14 -8 -34
-14 -43 -14 -10 0 -35 -6 -55 -14 -21 -8 -92 -26 -158 -41 -66 -14 -145 -33
-175 -41 -145 -39 -450 -89 -715 -119 -262 -29 -909 -66 -894 -51 5 5 93 12
334 26 105 5 291 19 415 30 198 18 298 31 560 69 89 13 184 34 190 42 3 3 52
14 110 23 58 10 125 23 150 31 25 7 95 25 155 40 61 15 115 30 120 35 6 4 26
11 45 15 19 4 46 14 58 22 13 8 40 17 60 19 20 3 50 11 66 19 16 8 35 15 42
15 20 0 103 29 169 60 33 16 87 39 120 52 33 12 62 26 65 29 3 4 33 17 68 29
34 13 65 27 68 31 3 5 20 9 37 9 l32 0 -33 -20z"/>
</g>
</svg>
